<?xml version="1.0" encoding="utf-8"?>
<!-- Generator: Adobe Illustrator 16.0.0, SVG Export Plug-In . SVG Version: 6.00 Build 0)  -->
<!DOCTYPE svg PUBLIC "-//W3C//DTD SVG 1.1//EN" "http://www.w3.org/Graphics/SVG/1.1/DTD/svg11.dtd">
<svg version="1.1" id="Layer_1" xmlns="http://www.w3.org/2000/svg" xmlns:xlink="http://www.w3.org/1999/xlink" x="0px" y="0px"
	 width="31.84px" height="36.08px" viewBox="0 0 31.84 36.08" enable-background="new 0 0 31.84 36.08" xml:space="preserve">
<path fill="#FFFFFF" d="M29.72,4.24V2.12H27.6V0H21.24l0,0H17h-4.28H8.48H4.24v2.12H2.12v2.12H0v4.24v4.24v4.239v4.24h2.12v2.12
	h2.12v2.119v2.16v2.121v1.959h2.119v2.28H8.48l0,0l0,0l0,0v2.12H23.6v-2.12h1.881v-2.12H27.6v-8.48h2.12V21.24h2.12V17v-4.24V8.52
	V4.24H29.72z M4.24,14.88v-2.12v-2.119h2.119V8.52H8.48H10.6v2.121h2.12v2.119v2.12H10.6V17H8.48H6.359v-2.12H4.24z M6.359,29.16
	v-2.12v-0.12H8.48v2.24H6.359z M12.72,29.12H10.6v-3.761h2.12V29.12z M17,29.12h-2.12v-3.761H17V29.12z M19.12,21.24H17h-4.28v-2.12
	h2.12V17h2.12v2.12h2.16V21.24z M21.24,25.359v3.761h-2.12v-3.761H21.24z M25.48,29.16h-2.121v-2.24h2.121V29.16z M27.6,12.76
	L27.6,12.76v2.12H25.48V17l0,0h-4.24v-2.12h-2.12v-4.239h2.12V8.52l0,0h4.24v2.121H27.6V12.76L27.6,12.76z"/>
</svg>
