<?xml version="1.0" encoding="utf-8"?>
<!-- Generator: Adobe Illustrator 19.1.0, SVG Export Plug-In . SVG Version: 6.00 Build 0)  -->
<svg version="1.1" id="Layer_1" xmlns="http://www.w3.org/2000/svg" xmlns:xlink="http://www.w3.org/1999/xlink" x="0px" y="0px"
	 viewBox="-579 402.8 31.8 36.1" style="enable-background:new -579 402.8 31.8 36.1;" xml:space="preserve">
<style type="text/css">
	.st0{fill:#2D2D2D;}
</style>
<path class="st0" d="M-549.3,407v-2.1h-2.1v-2.1h-6.4l0,0h-4.2h-4.3h-4.2h-4.2v2.1h-2.1v2.1h-2.1v4.2v4.2v4.2v4.2h2.1v2.1h2.1v2.1
	v2.2v2.1v2h2.1v2.3h2.1l0,0l0,0l0,0v2.1h15.1v-2.1h1.9v-2.1h2.1v-8.5h2.1V424h2.1v-4.2v-4.2v-4.2V407H-549.3z M-574.8,417.7v-2.1
	v-2.1h2.1v-2.1h2.1h2.1v2.1h2.1v2.1v2.1h-2.1v2.1h-2.1h-2.1v-2.1H-574.8z M-572.6,432v-2.1v-0.1h2.1v2.2H-572.6z M-566.3,431.9h-2.1
	v-3.8h2.1V431.9z M-562,431.9h-2.1v-3.8h2.1V431.9z M-559.9,424h-2.1h-4.3v-2.1h2.1v-2.1h2.1v2.1h2.2
	C-559.9,421.9-559.9,424-559.9,424z M-557.8,428.2v3.8h-2.1v-3.8H-557.8z M-553.5,432h-2.1v-2.2h2.1V432z M-551.4,415.6
	L-551.4,415.6v2.1h-2.1v2.1l0,0h-4.2v-2.1h-2.1v-4.2h2.1v-2.1l0,0h4.2v2.1h2.1V415.6L-551.4,415.6z"/>
</svg>
